<mxfile host="app.diagrams.net" modified="2024-01-08T13:25:57.825Z" agent="Mozilla/5.0 (Windows NT 10.0; Win64; x64; rv:121.0) Gecko/20100101 Firefox/121.0" etag="eQJk9dpOh_3IRBkSSTWN" version="22.1.16" type="github">
  <diagram name="Page-1" id="I3oJ50PnYcfgqcAo5yfL">
    <mxGraphModel dx="1687" dy="887" grid="1" gridSize="10" guides="1" tooltips="1" connect="1" arrows="1" fold="1" page="1" pageScale="1" pageWidth="827" pageHeight="1169" math="0" shadow="0">
      <root>
        <mxCell id="0" />
        <mxCell id="1" parent="0" />
        <mxCell id="W_m7I9tnZk214C1UOgrq-13" value="" style="edgeStyle=orthogonalEdgeStyle;rounded=0;orthogonalLoop=1;jettySize=auto;html=1;fillColor=#f8cecc;strokeColor=#b85450;" edge="1" parent="1" source="W_m7I9tnZk214C1UOgrq-1" target="W_m7I9tnZk214C1UOgrq-12">
          <mxGeometry relative="1" as="geometry" />
        </mxCell>
        <mxCell id="W_m7I9tnZk214C1UOgrq-1" value="RFP-1268" style="ellipse;whiteSpace=wrap;html=1;aspect=fixed;fillColor=#e1d5e7;strokeColor=#9673a6;fontFamily=Lucida Console;" vertex="1" parent="1">
          <mxGeometry x="370" y="350" width="80" height="80" as="geometry" />
        </mxCell>
        <mxCell id="W_m7I9tnZk214C1UOgrq-16" value="" style="edgeStyle=orthogonalEdgeStyle;rounded=0;orthogonalLoop=1;jettySize=auto;html=1;fillColor=#f8cecc;strokeColor=#b85450;" edge="1" parent="1" source="W_m7I9tnZk214C1UOgrq-12" target="W_m7I9tnZk214C1UOgrq-15">
          <mxGeometry relative="1" as="geometry" />
        </mxCell>
        <mxCell id="W_m7I9tnZk214C1UOgrq-18" value="" style="edgeStyle=orthogonalEdgeStyle;rounded=0;orthogonalLoop=1;jettySize=auto;html=1;fillColor=#f8cecc;strokeColor=#b85450;" edge="1" parent="1" source="W_m7I9tnZk214C1UOgrq-12" target="W_m7I9tnZk214C1UOgrq-17">
          <mxGeometry relative="1" as="geometry" />
        </mxCell>
        <mxCell id="W_m7I9tnZk214C1UOgrq-12" value="&lt;br&gt;Verify parameter &quot;P.M.C Igual a Preço de Venda&quot; &lt;br&gt;the parameter is at Precificação configuration at tab page &quot;Entrada&quot;" style="whiteSpace=wrap;html=1;fillColor=#f8cecc;strokeColor=#b85450;fontFamily=Lucida Console;" vertex="1" parent="1">
          <mxGeometry x="330" y="150" width="160" height="140" as="geometry" />
        </mxCell>
        <mxCell id="W_m7I9tnZk214C1UOgrq-15" value="When the parameter is turned on need to change the PMC from products based on New Preco Venda" style="whiteSpace=wrap;html=1;fontFamily=Lucida Console;fillColor=#f8cecc;strokeColor=#b85450;" vertex="1" parent="1">
          <mxGeometry x="150" y="160" width="120" height="120" as="geometry" />
        </mxCell>
        <mxCell id="W_m7I9tnZk214C1UOgrq-17" value="When the parameter is turned off don&#39;t need to change anything" style="whiteSpace=wrap;html=1;fontFamily=Lucida Console;fillColor=#f8cecc;strokeColor=#b85450;" vertex="1" parent="1">
          <mxGeometry x="550" y="180" width="120" height="80" as="geometry" />
        </mxCell>
      </root>
    </mxGraphModel>
  </diagram>
</mxfile>
